<svg width="22" height="26" viewBox="0 0 22 26" fill="none" xmlns="http://www.w3.org/2000/svg">
<path d="M21.0391 11.293L3.04297 0.294914C2.73985 0.109553 2.39281 0.00830209 2.03757 0.00157883C1.68232 -0.00514443 1.3317 0.0829027 1.02178 0.256661C0.711864 0.430419 0.453834 0.683613 0.274246 0.990192C0.0946579 1.29677 -3.82735e-06 1.64566 1.16063e-10 2.00097V23.999C0.000289099 24.3542 0.0951335 24.7029 0.27479 25.0093C0.454446 25.3157 0.712437 25.5688 1.02226 25.7425C1.33208 25.9162 1.68255 26.0043 2.03768 25.9977C2.39281 25.9911 2.73979 25.8901 3.04297 25.7051L21.0391 14.707C21.3314 14.5283 21.5729 14.2774 21.7405 13.9785C21.9081 13.6796 21.9961 13.3427 21.9961 13C21.9961 12.6573 21.9081 12.3204 21.7405 12.0215C21.5729 11.7226 21.3314 11.4717 21.0391 11.293V11.293Z" fill="white"/>
</svg>
